<svg xmlns="http://www.w3.org/2000/svg" viewBox="0 0 240 240" preserveAspectRatio="xMidYMid meet">
  <defs>
    <linearGradient id="grad" x1="0%" y1="0%" x2="100%" y2="100%">
      <stop offset="0%" stop-color="#7bf8c6"/>
      <stop offset="100%" stop-color="#34c1dd"/>
    </linearGradient>
  </defs>
  <rect width="240" height="240" rx="40" fill="#0f172a"/>
  <path fill="url(#grad)" d="M158 56.5c1.2-.3 2.6-.5 4-.5s2.8.2 4 .5l32.3 8.6c2.1.5 3.6 2.7 3.1 4.8l-5.7 31.7c-.3 1.1-1 2-1.9 2.6l-24 14.8a7 7 0 0 0-.5 7.8L198 147c1.2 1.9.2 4.3-1.7 5.4l-27.7 16c-1.1.6-2.4.6-3.5 0l-16.1-8.9-17.2 10.4c-1.1.6-2.4.6-3.5 0l-27.7-16c-1.9-1.1-2.9-3.5-1.7-5.4l16.8-19.1c.7-.8.9-1.7.7-2.7l-3.2-18.3c-.3-2.1 1.1-4 3.1-4.5l28.4-8.3c1.3-.4 2.7-.6 4-.6 1.4 0 2.8.2 4 .6l16.5 4.9c1.1.3 2.4 0 3.3-.7l11.5-10.9c1.2-1.1 1.6-2.8 1-4.3l-6.4-13.4a4.5 4.5 0 0 0-4.5-2.6l-18.2 2.4a7 7 0 0 0-6 3.4l-12.7 22.7c-.6 1-.1 2.3 1 2.9l12.1 5.4c2.2.9 4.4-.2 5.3-2.4l6.3-13.2c.7-1.5-.2-3.2-1.8-3.6l-18.4-4.3c-1.4-.3-2.7-.5-4-.5-1.4 0-2.8.2-4 .5L94.4 65c-1.1.3-2.4.1-3.3-.6L56 48.3c-1.9-1.1-2.9-3.5-1.7-5.4L81.8 29c1.1-.6 2.4-.6 3.5 0l17.4 10.5 17.2-10.4c1.1-.6 2.4-.6 3.5 0l30.8 17.6Z"/>
  <text x="50%" y="200" fill="#e5f5ff" font-family="Inter, Arial, sans-serif" font-size="28" font-weight="700" text-anchor="middle">X1 FACTORY</text>
</svg>
